{"title":"The.Rachel.Maddow.Show.2013.04.05.All.In.With.Chris.Hayes.x264","uid":8346878,"size":348345109,"categoryP":"video","categoryS":"tv_shows","magnet":"?xt=urn:btih:4ccc4b8221ec3bd48bd9820e7a4fce21877b84e1&amp;dn=The.Rachel.Maddow.Show.2013.04.05.All.In.With.Chris.Hayes.x264&amp;tr=udp%3A%2F%2Ftracker.openbittorrent.com%3A80&amp;tr=udp%3A%2F%2Fopen.demonii.com%3A1337&amp;tr=udp%3A%2F%2Ftracker.coppersurfer.tk%3A6969&amp;tr=udp%3A%2F%2Fexodus.desync.com%3A6969","seeders":1,"leechers":0,"uploader":null,"files":1,"time":1365232116,"description":"The Rachel Maddow Show plus All In With Chris Hayes - mkv\nApril 5  - 2013\n\nBoth shows are in one file - 126 minutes\nI included - ALL IN - because it was a new show and Rachel has been talking about it.\nI thought some of you might have been curious about it.\n\nMy cable changed from a SD full screen 4-3 to a SD wide screen 16-9 letterboxed\nThis made my source file even smaller which makes the quality worse.\nNothing I can do about that.\n\n\n\nVideo\nSource \t\t\t\t : SDTV\nID                               : 1\nFormat                           : AVC\nFormat/Info                      : Advanced Video Codec\nFormat profile                   : &lt;a class=&quot;__cf_email__&quot; href=&quot;/cdn-cgi/l/email-protection&quot; data-cfemail=&quot;e1a9888689a1add3cfd0&quot;&gt;[email&amp;#160;protected]&lt;/a&gt;&lt;script cf-hash='f9e31' type=&quot;text/javascript&quot;&gt;\n/* &lt;![CDATA[ */!function(){try{var t=&quot;currentScript&quot;in document?document.currentScript:function(){for(var t=document.getElementsByTagName(&quot;script&quot;),e=t.length;e--;)if(t[e].getAttribute(&quot;cf-hash&quot;))return t[e]}();if(t&amp;&amp;t.previousSibling){var e,r,n,i,c=t.previousSibling,a=c.getAttribute(&quot;data-cfemail&quot;);if(a){for(e=&quot;&quot;,r=parseInt(a.substr(0,2),16),n=2;a.length-n;n+=2)i=parseInt(a.substr(n,2),16)^r,e+=String.fromCharCode(i);e=document.createTextNode(e),c.parentNode.replaceChild(e,c)}}}catch(u){}}();/* ]]&gt; */&lt;/script&gt;\nFormat settings, CABAC           : Yes\nFormat settings, ReFrames        : 6 frames\nCodec ID                         : V_MPEG4/ISO/AVC\nDuration                         : 1h 26mn\nBit rate                         : 450 Kbps\nWidth                            : 544 pixels\nHeight                           : 304 pixels\nDisplay aspect ratio             : 16:9\nFrame rate                       : 29.970 fps\nColor space                      : YUV\nChroma subsampling               : 4:2:0\nBit depth                        : 8 bits\nScan type                        : Progressive\nBits/(Pixel*Frame)               : 0.091\nStream size                      : 266 MiB (80%)\nWriting library                  : x264 core 120\n\n\nAudio\nID                               : 2\nFormat                           : Vorbis\nFormat settings, Floor           : 1\nCodec ID                         : A_VORBIS\nDuration                         : 1h 26mn\nBit rate mode                    : Variable\nBit rate                         : 96.0 Kbps\nChannel(s)                       : 2 channels\nSampling rate                    : 48.0 KHz\nCompression mode                 : Lossy\nStream size                      : 59.2 MiB (18%)","torrent":{"xt":"urn:btih:4ccc4b8221ec3bd48bd9820e7a4fce21877b84e1","amp;dn":"The.Rachel.Maddow.Show.2013.04.05.All.In.With.Chris.Hayes.x264","amp;tr":["udp%3A%2F%2Ftracker.openbittorrent.com%3A80","udp%3A%2F%2Fopen.demonii.com%3A1337","udp%3A%2F%2Ftracker.coppersurfer.tk%3A6969","udp%3A%2F%2Fexodus.desync.com%3A6969"],"infoHash":"4ccc4b8221ec3bd48bd9820e7a4fce21877b84e1","infoHashBuffer":{"type":"Buffer","data":[76,204,75,130,33,236,59,212,139,217,130,14,122,79,206,33,135,123,132,225]},"announce":[],"urlList":[]}}